<svg width="117" height="24" viewBox="0 0 117 24" fill="none" xmlns="http://www.w3.org/2000/svg">
<rect width="24" height="24" fill="white" fill-opacity="0.01"/>
<path d="M1.94929 3.91175C1.97323 3.48082 2.43066 3.21536 2.81669 3.40838L7.65262 5.82634C7.86397 5.93201 7.99361 6.15189 7.98377 6.38798L7.5152 17.6338C7.50583 17.8586 7.37146 18.0593 7.16715 18.1536L1.90579 20.5819C1.49502 20.7715 1.03019 20.4556 1.05528 20.0039L1.94929 3.91175Z" fill="#007AFF"/>
<path d="M22.0507 3.91175C22.0268 3.48082 21.5693 3.21536 21.1833 3.40838L16.3474 5.82634C16.136 5.93201 16.0064 6.15189 16.0162 6.38798L16.4848 17.6338C16.4942 17.8586 16.6285 18.0593 16.8328 18.1536L22.0942 20.5819C22.505 20.7715 22.9698 20.4556 22.9447 20.0039L22.0507 3.91175Z" fill="#FDAD15"/>
<path d="M8.969 6.77336C8.98351 6.41065 9.36753 6.1838 9.69221 6.34614L11.5527 7.27639C11.8343 7.41716 12.1656 7.41716 12.4472 7.27639L14.3077 6.34614C14.6323 6.1838 15.0164 6.41065 15.0309 6.77337L15.4783 17.9603C15.4918 18.2971 15.3347 18.618 15.0604 18.814L12.3487 20.7509C12.1401 20.8999 11.8598 20.8999 11.6512 20.7509L8.93949 18.814C8.66519 18.618 8.50806 18.2971 8.52153 17.9603L8.969 6.77336Z" fill="#2AC670"/>
<path d="M35.26 5.148V18H37.222V8.82H37.294L41.236 18H42.928L46.87 8.82H46.942V18H48.904V5.148H46.582L42.118 15.444H42.064L37.582 5.148H35.26ZM52.6019 4.968C52.2239 4.968 51.9179 5.076 51.6659 5.328C51.4139 5.562 51.2879 5.868 51.2879 6.246C51.2879 6.606 51.4139 6.93 51.6659 7.182C51.9179 7.416 52.2239 7.542 52.6019 7.542C52.9619 7.542 53.2859 7.416 53.5379 7.182C53.7899 6.93 53.9339 6.624 53.9339 6.246C53.9339 5.868 53.8079 5.562 53.5559 5.328C53.3039 5.076 52.9799 4.968 52.6019 4.968ZM51.6479 8.694V18H53.5559V8.694H51.6479ZM60.8546 8.442C60.2786 8.442 59.7566 8.55 59.2886 8.802C58.8206 9.036 58.4066 9.378 58.0466 9.846V8.694H56.1386V18H58.0466V12.402C58.1186 11.646 58.3886 11.052 58.8206 10.62C59.2166 10.224 59.7026 10.044 60.2426 10.044C61.6826 10.044 62.4206 10.836 62.4206 12.42V18H64.3286V12.258C64.3286 9.702 63.1586 8.442 60.8546 8.442ZM70.3797 8.442C69.1197 8.442 68.0937 8.874 67.3197 9.756C66.5277 10.62 66.1497 11.736 66.1497 13.14C66.1497 14.544 66.5277 15.66 67.3197 16.506C68.0937 17.352 69.1197 17.784 70.3797 17.784C71.6037 17.784 72.5397 17.262 73.2237 16.236V17.676C73.2237 19.422 72.4137 20.304 70.7937 20.304C70.0377 20.304 69.4797 20.178 69.1377 19.962C68.7777 19.728 68.5617 19.332 68.4537 18.792H66.5457C66.7257 19.818 67.1397 20.574 67.8237 21.078C68.5077 21.564 69.4977 21.816 70.7937 21.816C73.6737 21.816 75.1317 20.34 75.1317 17.388V8.694H73.2237V9.936C72.5397 8.928 71.6037 8.442 70.3797 8.442ZM70.6677 9.99C71.4777 9.99 72.1077 10.26 72.5757 10.836C73.0077 11.394 73.2417 12.168 73.2417 13.14C73.2417 14.094 73.0077 14.85 72.5757 15.408C72.1077 15.948 71.4777 16.218 70.6677 16.218C69.7317 16.218 69.0657 15.894 68.6517 15.282C68.2917 14.76 68.1117 14.04 68.1117 13.14C68.1117 12.15 68.3277 11.376 68.7957 10.836C69.2277 10.26 69.8577 9.99 70.6677 9.99ZM83.0451 4.896C80.9931 4.896 79.4451 5.562 78.3651 6.93C77.3931 8.136 76.9251 9.684 76.9251 11.592C76.9251 13.536 77.3751 15.084 78.3111 16.236C79.3731 17.568 80.9571 18.252 83.0631 18.252C84.4491 18.252 85.6371 17.856 86.6271 17.064C87.6891 16.218 88.3551 15.048 88.6431 13.554H86.7351C86.4831 14.562 86.0331 15.318 85.3851 15.822C84.7731 16.29 83.9811 16.524 83.0451 16.524C81.6051 16.524 80.5431 16.074 79.8591 15.174C79.2111 14.328 78.8871 13.14 78.8871 11.592C78.8871 10.098 79.2111 8.91 79.8771 8.046C80.5791 7.092 81.6231 6.624 83.0091 6.624C83.9451 6.624 84.7011 6.822 85.3131 7.236C85.9251 7.65 86.3391 8.298 86.5551 9.162H88.4631C88.2651 7.866 87.6891 6.822 86.7531 6.066C85.7811 5.274 84.5391 4.896 83.0451 4.896ZM90.4511 8.694V14.49C90.4511 16.992 91.5671 18.252 93.8171 18.252C94.9871 18.252 95.9591 17.748 96.7511 16.74V18H98.6591V8.694H96.7511V14.382C96.5891 15.066 96.2831 15.624 95.8511 16.038C95.4191 16.434 94.9691 16.65 94.4651 16.65C93.7271 16.65 93.1871 16.452 92.8631 16.092C92.5211 15.732 92.3591 15.156 92.3591 14.364V8.694H90.4511ZM103.666 5.688L101.758 6.48V8.694H100.03V10.278H101.758V15.678C101.758 16.416 101.92 16.974 102.28 17.37C102.64 17.784 103.234 18 104.026 18H105.556V16.416H104.332C104.098 16.416 103.936 16.344 103.828 16.236C103.72 16.11 103.666 15.93 103.666 15.678V10.278H105.79V8.694H103.666V5.688ZM111.268 8.442C109.9 8.442 108.802 8.91 108.01 9.864C107.182 10.8 106.786 11.952 106.786 13.338C106.786 14.868 107.218 16.074 108.082 16.974C108.874 17.82 109.972 18.252 111.34 18.252C112.582 18.252 113.608 17.892 114.418 17.19C115.066 16.614 115.48 15.876 115.696 15.012H113.788C113.536 15.552 113.266 15.966 112.942 16.218C112.528 16.524 111.988 16.686 111.322 16.686C110.566 16.686 109.972 16.434 109.54 15.966C109.108 15.48 108.874 14.778 108.802 13.878H115.858C115.84 12.222 115.462 10.926 114.742 9.99C113.95 8.946 112.78 8.442 111.268 8.442ZM111.322 10.008C112.834 10.008 113.68 10.818 113.86 12.438H108.838C108.946 11.646 109.216 11.052 109.612 10.638C110.044 10.206 110.602 10.008 111.322 10.008Z" fill="#09244B"/>
<a href="https://www.mingcute.com/">
<rect fill="black" fill-opacity="0" y="-0.6" width="82.3981" height="25.2"/>
</a>
</svg>
