<svg width="20" height="20" viewBox="0 0 20 20" fill="none" xmlns="http://www.w3.org/2000/svg">
<path d="M11.6667 2.5C12.5872 2.5 13.3334 3.24619 13.3334 4.16667V6.66667H16.6667C17.5872 6.66667 18.3334 7.41286 18.3334 8.33333V15.8333C18.3334 16.7538 17.5872 17.5 16.6667 17.5H3.33335C2.41288 17.5 1.66669 16.7538 1.66669 15.8333V10.8333C1.66669 9.91283 2.41288 9.16667 3.33335 9.16667H6.66669V4.16667C6.66669 3.24619 7.41288 2.5 8.33335 2.5H11.6667ZM11.6667 4.16667H8.33335V15.8333H11.6667V4.16667ZM16.6667 8.33333H13.3334V15.8333H16.6667V8.33333ZM6.66669 10.8333H3.33335V15.8333H6.66669V10.8333Z" fill="#8491A5"/>
</svg>
