<svg width="20" height="20" viewBox="0 0 20 20" fill="none" xmlns="http://www.w3.org/2000/svg">
<path d="M16.6666 3.33337C17.5452 3.33337 18.265 4.01327 18.3287 4.87566L18.3332 5.00004V15C18.3332 15.8787 17.6534 16.5985 16.791 16.6621L16.6666 16.6667H3.33323C2.4546 16.6667 1.73476 15.9868 1.67114 15.1244L1.66656 15V5.00004C1.66656 4.12141 2.34646 3.40157 3.20885 3.33795L3.33323 3.33337H16.6666ZM16.6666 6.17857L10.8837 11.9614C10.3956 12.4495 9.60415 12.4495 9.11598 11.9614L3.33323 6.17857V15H16.6666V6.17857ZM15.4881 5.00004H4.51164L9.9999 10.4883L15.4881 5.00004Z" fill="#8491A5"/>
</svg>
